PathFileType	4	(X/Y/Z)	/Users/itak/Documents/Research/Walk-IL/dataset/trc/00331_00011.trc
DataRate	CameraRate	NumFrames	NumMarkers	Units	OrigDataRate	OrigDataStartFrame	OrigNumFrames
100.000000	100.000000	4	55	mm	100.000000	693	792
Frame#	Time	RPSI			LPSI			L3			STRN			T10			C7			CLAV			RBAK			LBAK			LSHO			LUPA			LAEL			LAOL			LWTS			LWPS			LFRA			LIFD			LHPS			RSHO			RUPA			RAEL			RAOL			RWTS			RWPS			RFRA			RIFD			RHTS			RHPS			RBHD			LFHD			RFHD			LBHD			LHIP			RHIP			RASI			LASI			LKNE			LTHI			LANK			LTIP			LTOE			LMT1			LMT5			LHEE			RKNE			RTHI			RANK			RTIP			RTOE			RMT1			RMT5			RHEE			LHTS			*53			*54			
		X1	Y1	Z1	X2	Y2	Z2	X3	Y3	Z3	X4	Y4	Z4	X5	Y5	Z5	X6	Y6	Z6	X7	Y7	Z7	X8	Y8	Z8	X9	Y9	Z9	X10	Y10	Z10	X11	Y11	Z11	X12	Y12	Z12	X13	Y13	Z13	X14	Y14	Z14	X15	Y15	Z15	X16	Y16	Z16	X17	Y17	Z17	X18	Y18	Z18	X19	Y19	Z19	X20	Y20	Z20	X21	Y21	Z21	X22	Y22	Z22	X23	Y23	Z23	X24	Y24	Z24	X25	Y25	Z25	X26	Y26	Z26	X27	Y27	Z27	X28	Y28	Z28	X29	Y29	Z29	X30	Y30	Z30	X31	Y31	Z31	X32	Y32	Z32	X33	Y33	Z33	X34	Y34	Z34	X35	Y35	Z35	X36	Y36	Z36	X37	Y37	Z37	X38	Y38	Z38	X39	Y39	Z39	X40	Y40	Z40	X41	Y41	Z41	X42	Y42	Z42	X43	Y43	Z43	X44	Y44	Z44	X45	Y45	Z45	X46	Y46	Z46	X47	Y47	Z47	X48	Y48	Z48	X49	Y49	Z49	X50	Y50	Z50	X51	Y51	Z51	X52	Y52	Z52	X53	Y53	Z53	X54	Y54	Z54	X55	Y55	Z55	

694	6.93	-860.2406616210938	973.5809326171875	259.7495727539062	-862.6962280273438	978.3268432617188	129.8166046142578	-868.3429565429688	1045.793579101562	201.4782562255859	-614.7086181640625	1211.517456054688	189.8979339599609	-863.2471313476562	1164.44091796875	201.5632629394531	-802.417236328125	1407.486938476562	180.023193359375	-652.2463989257812	1337.991333007812	182.3646087646484	-860.2175903320312	1275.5810546875	255.4576263427734	-818.50244140625	1368.511108398438	80.17679595947266	-733.8214721679688	1375.89990234375	21.29904365539551	-763.3330688476562	1257.5029296875	-42.90340805053711	-765.6057739257812	1054.414428710938	-59.85174179077148	-820.5169067382812	1044.168212890625	2.884392023086548	-692.1672973632812	801.3033447265625	-38.05823135375977	-739.9149780273438	797.8848266601562	-88.33424377441406	-762.5646362304688	950.03125	-72.50254058837891	-705.219970703125	640.5142822265625	-42.17005157470703	-749.181396484375	727.7108154296875	-85.44033813476562	-739.872314453125	1394.993041992188	340.4590454101562	-748.93212890625	1332.238891601562	408.6995544433594	-727.6910400390625	1067.986572265625	460.5391235351562	-781.0682983398438	1052.66357421875	383.637939453125	-597.7642822265625	856.9114990234375	396.7090454101562	-616.0325317382812	837.8372192382812	467.9292907714844	-694.654296875	1002.399108886719	466.9757080078125	-552.642578125	688.5012817382812	402.3056030273438	-550.2721557617188	761.9054565429688	404.9563903808594	-589.0944213867188	756.3966674804688	461.820556640625	-762.0101928710938	1601.411987304688	250.7556304931641	-592.2637939453125	1621.00244140625	129.7222442626953	-602.0118408203125	1624.870361328125	230.5745849609375	-775.0936889648438	1589.030029296875	106.370964050293	-772.6605224609375	931.3812255859375	23.2413387298584	-783.49267578125	909.394287109375	365.4257507324219	-676.6637573242188	939.8931274414062	328.2160949707031	-658.6552124023438	951.3241577148438	90.01321411132812	-592.2056274414062	488.0560607910156	53.72785186767578	-636.5698852539062	622.2061767578125	34.64088439941406	-653.45068359375	55.55875778198242	73.2767333984375	-624.1270751953125	266.2685852050781	50.63528442382812	-455.0327758789062	78.39959716796875	147.115966796875	-524.6566772460938	62.40814590454102	183.2421569824219	-527.6295776367188	63.6716423034668	69.22357177734375	-693.41748046875	55.03191375732422	138.9928588867188	-754.86474609375	446.0736389160156	318.9674072265625	-714.8878784179688	701.9506225585938	358.3184509277344	-879.6748657226562	48.92118072509766	264.3295288085938	-765.31201171875	325.9841003417969	296.9750061035156	-684.9434814453125	49.54396820068359	217.0545806884766	-738.7413330078125	42.53433609008789	174.5549163818359	-776.9078369140625	42.05746841430664	285.1817016601562	-931.1503295898438	49.96950531005859	215.9310760498047	-691.8614501953125	721.1163940429688	-59.45526504516602	nan	nan	nan	nan	nan	nan	
695	6.94	-863.569580078125	973.65283203125	260.8204040527344	-866.5865478515625	978.77880859375	130.9417724609375	-872.4366455078125	1046.095092773438	202.1598968505859	-619.1671142578125	1212.956787109375	189.9352722167969	-867.6942138671875	1164.710083007812	201.9654083251953	-807.7064819335938	1408.030517578125	180.0638275146484	-657.40673828125	1339.16259765625	182.4660491943359	-865.2172241210938	1276.00634765625	255.4790802001953	-823.7476196289062	1368.996826171875	80.21393585205078	-739.092041015625	1376.807373046875	21.41151809692383	-767.5374755859375	1258.254516601562	-42.97270202636719	-767.3502197265625	1054.984741210938	-59.60623168945312	-822.8377075195312	1044.365844726562	2.631991386413574	-690.888671875	802.9077758789062	-36.20272064208984	-737.902587890625	798.6321411132812	-86.96172332763672	-762.8036499023438	950.6155395507812	-71.8594970703125	-701.3594970703125	642.1250610351562	-39.45320510864258	-746.1924438476562	728.3011474609375	-83.79287719726562	-745.2732543945312	1395.856811523438	340.4864196777344	-754.5031127929688	1333.159301757812	408.6807556152344	-734.0833740234375	1068.918701171875	460.3504638671875	-786.9249267578125	1053.697143554688	383.110595703125	-605.1449584960938	856.6021728515625	397.7185363769531	-623.90771484375	838.051513671875	469.0266723632812	-701.3367309570312	1003.162109375	467.0282592773438	-561.5596313476562	687.758056640625	404.3581848144531	-558.589111328125	761.1218872070312	406.5190124511719	-597.5648803710938	756.3495483398438	463.37548828125	-766.498291015625	1602.514892578125	250.7901916503906	-596.6820678710938	1621.217651367188	129.7043304443359	-606.3897094726562	1625.138305664062	230.5599517822266	-779.6681518554688	1590.178466796875	106.3895034790039	-776.9632568359375	932.3939208984375	23.75978660583496	-786.0907592773438	909.6021118164062	366.0699462890625	-679.696533203125	940.6337890625	328.1423034667969	-662.411865234375	952.8092041015625	89.82794952392578	-595.2954711914062	489.7271728515625	53.41426849365234	-639.6614990234375	623.6483154296875	34.75455856323242	-660.0123901367188	57.31234741210938	71.597900390625	-628.8982543945312	267.7237854003906	49.51595687866211	-460.7064514160156	78.16017913818359	143.5875244140625	-530.053955078125	62.36698913574219	180.2434844970703	-534.2380981445312	64.54697418212891	66.34058380126953	-699.2942504882812	56.62814331054688	137.7228393554688	-756.1806030273438	446.3696594238281	318.3310241699219	-716.6679077148438	702.2462158203125	358.1430358886719	-879.8198852539062	48.99373626708984	264.2633361816406	-766.33154296875	326.4151611328125	296.6742858886719	-685.1111450195312	49.87327575683594	216.8193206787109	-738.8807983398438	42.6264533996582	174.4026641845703	-777.0900268554688	42.24750137329102	285.0606079101562	-931.2752075195312	49.8660774230957	215.9039001464844	-688.9884643554688	722.6531372070312	-57.37662887573242	nan	nan	nan	nan	nan	nan	
696	6.95	-866.7017211914062	973.6624755859375	261.7741394042969	-870.2188110351562	979.1655883789062	131.9374847412109	-876.2923583984375	1046.270141601562	202.8107604980469	-623.5054321289062	1214.351196289062	189.9660034179688	-871.9768676757812	1164.842407226562	202.3961639404297	-812.9215698242188	1408.465576171875	180.1048736572266	-662.452392578125	1340.282836914062	182.5551300048828	-870.0742797851562	1276.30322265625	255.5265502929688	-828.9203491210938	1369.321166992188	80.27536773681641	-744.3280029296875	1377.562377929688	21.50994300842285	-771.7503051757812	1258.843627929688	-43.00729370117188	-769.0531616210938	1055.433837890625	-59.45158386230469	-825.1417846679688	1044.385375976562	2.266691207885742	-689.4243774414062	804.5382080078125	-34.42147064208984	-735.6433715820312	799.3758544921875	-85.68393707275391	-762.945068359375	951.0985717773438	-71.32311248779297	-697.1105346679688	643.8006591796875	-36.89885330200195	-742.8772583007812	728.9049072265625	-82.26584625244141	-750.5846557617188	1396.654296875	340.5231018066406	-759.9999389648438	1334.011108398438	408.6717224121094	-740.5720825195312	1069.752685546875	460.1777648925781	-792.7327880859375	1054.663696289062	382.48779296875	-612.5487060546875	856.2197265625	398.9014282226562	-631.9981689453125	838.133056640625	470.2192077636719	-708.1427001953125	1003.810302734375	467.1274108886719	-570.4671630859375	686.9882202148438	406.5502319335938	-566.9373168945312	760.278076171875	408.3080139160156	-606.2138061523438	756.1925048828125	465.0119934082031	-771.0040283203125	1603.582763671875	250.8155822753906	-601.1331787109375	1621.42529296875	129.6580505371094	-610.8023681640625	1625.3974609375	230.5248413085938	-784.2564086914062	1591.264892578125	106.3965606689453	-780.9813232421875	933.293701171875	24.2144832611084	-788.584228515625	909.720947265625	366.6239318847656	-682.5548095703125	941.2455444335938	328.0811462402344	-665.8117065429688	954.2389526367188	89.64891815185547	-598.369140625	491.1926879882812	52.99240493774414	-642.5770263671875	624.9299926757812	34.76736068725586	-667.047119140625	59.00563430786133	69.75081634521484	-633.9417724609375	269.0769653320312	48.26163864135742	-466.88720703125	77.79514312744141	139.9098052978516	-535.9646606445312	62.22394180297852	177.0917816162109	-541.3170166015625	65.34518432617188	63.31046676635742	-705.6949462890625	58.19039535522461	136.2466430664062	-757.6336059570312	446.7016906738281	317.6568298339844	-718.4629516601562	702.5147705078125	357.9508056640625	-880.0105590820312	49.04240036010742	264.1937561035156	-767.444580078125	326.8440856933594	296.3999328613281	-685.3060302734375	50.24553680419922	216.5874328613281	-739.0636596679688	42.75274276733398	174.2464599609375	-777.2962036132812	42.44339370727539	284.9681396484375	-931.4423217773438	49.71712112426758	215.8681640625	-685.7963256835938	724.4225463867188	-55.3253059387207	nan	nan	nan	nan	nan	nan	
697	6.96	-869.67724609375	973.6287231445312	262.5595092773438	-873.6026611328125	979.4701538085938	132.7515106201172	-879.9306030273438	1046.324096679688	203.3883361816406	-627.7271728515625	1215.67041015625	189.9998016357422	-876.1110229492188	1164.847900390625	202.8263854980469	-818.0423583984375	1408.789306640625	180.1436157226562	-667.3610229492188	1341.326904296875	182.6375274658203	-874.7774047851562	1276.472290039062	255.5884246826172	-833.9940185546875	1369.486694335938	80.35499572753906	-749.4943237304688	1378.14697265625	21.59261703491211	-775.96142578125	1259.243530273438	-42.99151992797852	-770.7362060546875	1055.740600585938	-59.37358093261719	-827.4281616210938	1044.204345703125	1.816691994667053	-687.7957153320312	806.1870727539062	-32.73006820678711	-733.1854858398438	800.1104125976562	-84.50205230712891	-763.0253295898438	951.4596557617188	-70.88346862792969	-692.4891967773438	645.5401000976562	-34.56292343139648	-739.2732543945312	729.5228881835938	-80.87327575683594	-755.7860717773438	1397.364135742188	340.5736694335938	-765.3955688476562	1334.765747070312	408.6749877929688	-747.1073608398438	1070.464233398438	460.0392761230469	-798.4661865234375	1055.536987304688	381.8058166503906	-619.94873046875	855.74365234375	400.2461242675781	-640.2525024414062	838.0645141601562	471.4972839355469	-715.0217895507812	1004.326843261719	467.2861938476562	-579.3558959960938	686.166015625	408.8438415527344	-575.2900390625	759.3587036132812	410.2987670898438	-615.0079956054688	755.9026489257812	466.7107849121094	-775.5228881835938	1604.592651367188	250.8344879150391	-605.6172485351562	1621.629760742188	129.5810241699219	-615.246826171875	1625.655151367188	230.4656829833984	-788.8560180664062	1592.262817382812	106.3953247070312	-784.67626953125	934.0460205078125	24.59093856811523	-791.034912109375	909.7965087890625	367.0675659179688	-685.2848510742188	941.7616577148438	328.0460510253906	-668.8915405273438	955.5592041015625	89.49922180175781	-601.4139404296875	492.4205627441406	52.45476531982422	-645.3182373046875	626.018310546875	34.65201568603516	-674.5057373046875	60.63072967529297	67.74021911621094	-639.2290649414062	270.319091796875	46.87496566772461	-473.5438232421875	77.33155059814453	136.1252593994141	-542.3646240234375	61.98693084716797	173.8167114257812	-548.8222045898438	66.06501770019531	60.162841796875	-712.5733642578125	59.70432662963867	134.5647125244141	-759.2019653320312	447.0704956054688	317.0462036132812	-720.3098754882812	702.7811889648438	357.7741088867188	-880.2357788085938	49.07040023803711	264.1282348632812	-768.627685546875	327.261474609375	296.172607421875	-685.5155029296875	50.64359283447266	216.3721618652344	-739.281005859375	42.91416549682617	174.0964508056641	-777.5182495117188	42.63993072509766	284.9068298339844	-931.6378784179688	49.53457260131836	215.8308410644531	-682.3318481445312	726.4041137695312	-53.33039855957031	nan	nan	nan	nan	nan	nan	
